<?xml version="1.0" encoding="utf-8"?><!DOCTYPE svg PUBLIC "-//W3C//DTD SVG 1.1//EN" "http://www.w3.org/Graphics/SVG/1.1/DTD/svg11.dtd"><svg version="1.1" xmlns="http://www.w3.org/2000/svg" xmlns:xlink="http://www.w3.org/1999/xlink" x="0px" y="0px" width="140px" height="140px" viewBox="0 0 140 140" enable-background="new 0 0 140 140" xml:space="preserve"><circle fill="#ba008a" cx="70" cy="70" r="70"/><path fill="#FFFFFF" d="M28.965,103.793c-2.665,0-4.828-2.162-4.828-4.828c0-2.664,2.163-4.827,4.828-4.827 c13.31,0,24.138-10.828,24.138-24.138c0-2.665,2.163-4.828,4.828-4.828c2.665,0,4.828,2.163,4.828,4.828 C62.759,88.635,47.6,103.793,28.965,103.793z"/><path fill="#FFFFFF" d="M57.931,74.828c-2.665,0-4.828-2.163-4.828-4.828c0-18.634,15.159-33.793,33.793-33.793h24.139 c2.664,0,4.827,2.163,4.827,4.828c0,2.665-2.163,4.828-4.827,4.828H86.896c-13.31,0-24.138,10.828-24.138,24.138 C62.759,72.665,60.596,74.828,57.931,74.828z"/><path fill="#FFFFFF" d="M111.035,103.793H86.896c-8.246,0-16.188-2.998-22.359-8.443c-1.999-1.765-2.189-4.815-0.427-6.814 c1.762-1.998,4.818-2.189,6.813-0.427c4.408,3.889,10.083,6.029,15.973,6.029h24.139c2.664,0,4.827,2.163,4.827,4.827 C115.862,101.631,113.699,103.793,111.035,103.793z"/><path fill="#FFFFFF" d="M48.281,53.234c-1.146,0-2.295-0.406-3.218-1.231c-4.424-3.961-10.143-6.141-16.098-6.141h-4.828 c-2.665,0-4.827-2.163-4.827-4.828c0-2.665,2.163-4.828,4.827-4.828h4.828c8.333,0,16.339,3.056,22.538,8.6 c1.984,1.777,2.156,4.83,0.377,6.817C50.929,52.69,49.608,53.234,48.281,53.234z"/><path fill="#FFFFFF" d="M28.965,103.793h-4.828c-2.665,0-4.827-2.162-4.827-4.828c0-2.664,2.163-4.827,4.827-4.827h4.828 c2.665,0,4.828,2.163,4.828,4.827C33.793,101.631,31.63,103.793,28.965,103.793z"/><path fill="#FFFFFF" d="M86.901,65.172c-1.491,0-2.964-0.688-3.907-1.986c-1.57-2.158-1.092-5.178,1.062-6.744l21.186-15.407 L84.059,25.627c-2.156-1.567-2.635-4.586-1.062-6.744c1.564-2.153,4.584-2.636,6.744-1.062l31.915,23.213l-31.92,23.213 C88.879,64.873,87.884,65.172,86.901,65.172z"/><path fill="#FFFFFF" d="M86.901,123.104c-1.491,0-2.964-0.688-3.907-1.986c-1.57-2.158-1.092-5.178,1.062-6.744l21.186-15.408 L84.059,83.559c-2.156-1.566-2.635-4.586-1.062-6.744c1.564-2.156,4.584-2.634,6.744-1.062l31.915,23.213l-31.92,23.214 C88.879,122.805,87.884,123.104,86.901,123.104z"/></svg>